<mxfile host="app.diagrams.net" modified="2024-01-28T08:29:04.521Z" agent="Mozilla/5.0 (Windows NT 10.0; Win64; x64) AppleWebKit/537.36 (KHTML, like Gecko) Chrome/121.0.0.0 Safari/537.36" version="22.1.21" etag="vhwePdgTOM3kneY1XS0M" type="github">
  <diagram name="Page-1" id="5R5L5uRmy_kTXRa1SHk5">
    <mxGraphModel>
      <root>
        <mxCell id="0" />
        <mxCell id="1" parent="0" />
      </root>
    </mxGraphModel>
  </diagram>
</mxfile>
